<svg width="829" height="339" viewBox="0 0 829 339" fill="none" xmlns="http://www.w3.org/2000/svg">
  <!--
  Designed by: ling leng | https://github.com/ling0x
  -->
<path d="M202.437 296.828L178.065 262.119H48C43.5 262.119 39 260.969 36.5 259.469C34 257.969 32.6763 256.469 30.2958 251.469C21.6402 233.289 4.8603 198.051 4.04829 196.391C2.95165 194.148 -1.56338 186.983 0.561061 180.628C2.6855 174.272 8.44943 172.077 12.667 169.687L81.2469 130.828L105.943 172.466L53.4639 202.635L64.1171 224.391H198.25L247 296.828H202.437Z" fill="#BCBEC0"/>
<rect x="94.3291" y="122.486" width="13.0455" height="49.7509" transform="rotate(-30 94.3291 122.486)" fill="#FFA000"/>
<rect x="114.752" y="110.694" width="13.0455" height="49.7509" transform="rotate(-30 114.752 110.694)" fill="#FFA000"/>
<rect x="135.686" y="98.6082" width="13.0455" height="49.7509" transform="rotate(-30 135.686 98.6082)" fill="#FFA000"/>
<path d="M212.31 224L230.502 224L281.969 297.017L263.81 297.017L212.31 224Z" fill="#FFA000"/>
<path d="M252.308 232.5L270.5 232.5L315.97 297.017L297.81 297.017L252.308 232.5Z" fill="#FFA000"/>
<path d="M293.5 242L311.692 242L349.277 297.017L331.118 297.017L293.5 242Z" fill="#FFA000"/>
<path d="M181.229 126.523L160 87.0497C223.589 48.5701 313.606 2.53658 391.645 0.182339C460.957 -1.90865 497.5 14.4691 519.5 24.4692C547.5 37.1967 638.5 86.9692 647.5 197.969C615.5 63.4691 496.407 28.3807 424.953 30.4249C353.5 32.4691 282.636 63.6913 193.308 119.64L181.229 126.523Z" fill="#BCBEC0"/>
<path d="M257.394 168.093L241 137.439C290.105 107.556 361.614 70.6171 421.882 68.9789C473.204 67.584 486.564 75.1115 500 79.4693C518.5 85.4694 592.5 119.969 604 201.969C573 104.969 491.5 87.9692 446.5 87.9692C401.5 87.9692 335.702 119.299 266.722 162.747L257.394 168.093Z" fill="#BCBEC0"/>
<path d="M416.144 250.828C422.586 258.534 431.647 264.064 442 266.119V296.828L366.052 296.827L335.5 250.828H416.144Z" fill="#FFA000"/>
<path d="M451 151.97C491.317 151.97 524 184.429 524 224.47C524 264.51 491.317 296.97 451 296.97C410.683 296.97 378 264.51 378 224.47C378 184.429 410.683 151.97 451 151.97ZM451 178.97C426.147 178.97 406 198.669 406 222.97C406 247.27 426.147 266.97 451 266.97C475.853 266.97 496 247.27 496 222.97C496 198.669 475.853 178.97 451 178.97Z" fill="#FFA000"/>
<circle cx="247.899" cy="153.582" r="17.5" fill="#BCBEC0"/>
<path d="M602.55 245.219C601.35 244.919 599.9 244.619 598.2 244.319C596.6 244.019 594.95 243.769 593.25 243.569C591.55 243.269 589.9 243.069 588.3 242.969C586.7 242.869 585.35 242.819 584.25 242.819C581.65 242.819 579.1 242.969 576.6 243.269C574.1 243.469 571.55 243.919 568.95 244.619V296.969H550.35V231.119C555.25 229.319 560.25 227.869 565.35 226.769C570.55 225.669 576.6 225.119 583.5 225.119C584.5 225.119 585.9 225.169 587.7 225.269C589.6 225.369 591.6 225.569 593.7 225.869C595.8 226.069 597.9 226.369 600 226.769C602.2 227.069 604.15 227.519 605.85 228.119L602.55 245.219ZM697.8 226.469C695.9 233.069 694.05 239.569 692.25 245.969C690.55 252.269 688.75 258.469 686.85 264.569C684.95 270.569 682.9 276.469 680.7 282.269C678.6 288.069 676.3 293.719 673.8 299.219C671.9 303.219 670 306.669 668.1 309.569C666.3 312.469 664.25 314.819 661.95 316.619C659.75 318.519 657.25 319.919 654.45 320.819C651.75 321.719 648.55 322.169 644.85 322.169C641.75 322.169 638.9 321.919 636.3 321.419C633.8 320.919 631.7 320.269 630 319.469L633.45 304.019C635.45 304.919 637.2 305.519 638.7 305.819C640.3 306.219 642 306.419 643.8 306.419C647.4 306.419 650.3 305.219 652.5 302.819C654.7 300.419 656.45 297.569 657.75 294.269C653.35 285.469 648.95 275.419 644.55 264.119C640.15 252.719 636.15 240.169 632.55 226.469H651.75C652.65 230.169 653.65 234.119 654.75 238.319C655.95 242.519 657.2 246.719 658.5 250.919C659.8 255.119 661.15 259.269 662.55 263.369C664.05 267.369 665.55 271.119 667.05 274.619C668.05 271.119 669.1 267.369 670.2 263.369C671.3 259.269 672.35 255.169 673.35 251.069C674.35 246.869 675.3 242.669 676.2 238.469C677.2 234.269 678.1 230.269 678.9 226.469H697.8ZM755.1 248.519L769.5 226.469H788.25L765.45 260.369C767.85 263.269 770.2 266.369 772.5 269.669C774.8 272.869 777 276.119 779.1 279.419C781.2 282.719 783.1 285.869 784.8 288.869C786.5 291.869 787.95 294.569 789.15 296.969H769.95C767.25 291.869 764.55 287.319 761.85 283.319C759.15 279.319 756.6 275.719 754.2 272.519C751.2 276.519 748.5 280.419 746.1 284.219C743.7 288.019 741.25 292.269 738.75 296.969H720C721.5 294.169 723.2 291.269 725.1 288.269C727.1 285.169 729.15 282.069 731.25 278.969C733.45 275.769 735.7 272.619 738 269.519C740.4 266.419 742.7 263.469 744.9 260.669L720.15 226.469H739.5L755.1 248.519Z" fill="#FFA000"/>
</svg>
